<svg width="25" height="24" viewBox="0 0 25 24" fill="none" xmlns="http://www.w3.org/2000/svg">
<g clip-path="url(#clip0_13_2385)">
<path d="M19.8094 12.572L12.3094 20L4.80938 12.572C4.31469 12.0906 3.92503 11.512 3.66493 10.8726C3.40484 10.2333 3.27994 9.54694 3.29812 8.85693C3.3163 8.16691 3.47715 7.48813 3.77054 6.86333C4.06394 6.23853 4.48352 5.68125 5.00287 5.22657C5.52222 4.7719 6.13009 4.42968 6.78819 4.22147C7.4463 4.01327 8.14039 3.94358 8.82675 4.0168C9.51311 4.09001 10.1769 4.30455 10.7763 4.6469C11.3756 4.98925 11.8976 5.45199 12.3094 6.00599C12.7229 5.45602 13.2455 4.99731 13.8445 4.6586C14.4434 4.31988 15.1059 4.10844 15.7903 4.03751C16.4748 3.96658 17.1665 4.03769 17.8222 4.24639C18.4778 4.45508 19.0834 4.79687 19.6009 5.25036C20.1185 5.70385 20.5368 6.25928 20.8298 6.88189C21.1228 7.50449 21.2841 8.18088 21.3037 8.8687C21.3233 9.55653 21.2006 10.241 20.9435 10.8792C20.6864 11.5175 20.3003 12.0958 19.8094 12.578" fill="white"/>
<path d="M19.8094 12.572L12.3094 20L4.80938 12.572C4.31469 12.0906 3.92503 11.512 3.66493 10.8726C3.40484 10.2333 3.27994 9.54694 3.29812 8.85693C3.3163 8.16691 3.47715 7.48813 3.77054 6.86333C4.06394 6.23853 4.48352 5.68125 5.00287 5.22657C5.52222 4.7719 6.13009 4.42968 6.78819 4.22147C7.4463 4.01327 8.14039 3.94358 8.82675 4.0168C9.51311 4.09001 10.1769 4.30455 10.7763 4.6469C11.3756 4.98925 11.8976 5.45199 12.3094 6.00599C12.7229 5.45602 13.2455 4.99731 13.8445 4.6586C14.4434 4.31988 15.1059 4.10844 15.7903 4.03751C16.4748 3.96658 17.1665 4.03769 17.8222 4.24639C18.4778 4.45508 19.0834 4.79687 19.6009 5.25036C20.1185 5.70385 20.5368 6.25928 20.8298 6.88189C21.1228 7.50449 21.2841 8.18088 21.3037 8.8687C21.3233 9.55653 21.2006 10.241 20.9435 10.8792C20.6864 11.5175 20.3003 12.0958 19.8094 12.578" stroke="white" stroke-width="1.5" stroke-linecap="round" stroke-linejoin="round"/>
</g>
<defs>
<clipPath id="clip0_13_2385">
<rect width="24" height="24" fill="white" transform="translate(0.30957)"/>
</clipPath>
</defs>
</svg>
